<?xml version="1.0" encoding="UTF-8"?>
<svg id="svg" xmlns="http://www.w3.org/2000/svg" xmlns:xlink="http://www.w3.org/1999/xlink" width="100%" height="100%" viewBox="0 0 104 104" version="1.1">
<g id="surface1">
<path style=" stroke:none;fill-rule:nonzero;fill-opacity:1;" d="M 89.546875 72.109375 C 83.359375 66.8125 77.0625 63.59375 70.953125 68.890625 L 67.296875 72.078125 C 64.625 74.40625 59.65625 85.25 40.453125 63.140625 C 21.25 41.078125 32.671875 37.640625 35.359375 35.34375 L 39.03125 32.140625 C 45.109375 26.84375 42.8125 20.171875 38.421875 13.296875 L 35.78125 9.140625 C 31.375 2.296875 26.5625 -2.203125 20.46875 3.078125 L 17.171875 5.96875 C 14.46875 7.921875 6.9375 14.3125 5.109375 26.4375 C 2.90625 40.984375 9.859375 57.65625 25.75 75.9375 C 41.625 94.234375 57.1875 103.421875 71.90625 103.265625 C 84.140625 103.125 91.546875 96.5625 93.859375 94.171875 L 97.15625 91.28125 C 103.25 86 99.46875 80.609375 93.265625 75.3125 Z "/>
</g>
</svg>
